<svg xmlns="http://www.w3.org/2000/svg" viewBox="0 0 1024 1024" role="img" aria-label="Timi cat face app icon">
  <defs>
    <linearGradient id="bg" x1="0" y1="0" x2="1" y2="1">
      <stop offset="0" stop-color="#fff6dc"/>
      <stop offset="1" stop-color="#d99a55"/>
    </linearGradient>
    <linearGradient id="fur" x1="0" y1="0" x2="0" y2="1">
      <stop offset="0" stop-color="#f5ddad"/>
      <stop offset="1" stop-color="#c98f59"/>
    </linearGradient>
    <filter id="shadow" x="-20%" y="-20%" width="140%" height="150%">
      <feDropShadow dx="0" dy="28" stdDeviation="28" flood-color="#5c321b" flood-opacity=".28"/>
    </filter>
  </defs>
  <rect width="1024" height="1024" rx="220" fill="url(#bg)"/>
  <g filter="url(#shadow)">
    <path d="M248 360 194 142c-10-42 35-74 71-50l158 107a362 362 0 0 1 178 0L759 92c36-24 81 8 71 50l-54 218c47 64 76 144 76 232 0 202-152 340-340 340S172 794 172 592c0-88 29-168 76-232Z" fill="url(#fur)" stroke="#9e6540" stroke-width="24" stroke-linejoin="round"/>
    <path d="m242 156 45 176 92-104Z" fill="#e9a6a1" opacity=".72"/>
    <path d="m782 156-45 176-92-104Z" fill="#e9a6a1" opacity=".72"/>
    <path d="M512 210v116M430 224l42 116M594 224l-42 116" fill="none" stroke="#a66f49" stroke-width="26" stroke-linecap="round" opacity=".75"/>
    <path d="M310 390c38-32 92-51 150-36M714 390c-38-32-92-51-150-36" fill="none" stroke="#a66f49" stroke-width="24" stroke-linecap="round"/>
    <ellipse cx="365" cy="505" rx="100" ry="112" fill="#fff0c6" stroke="#8d5c37" stroke-width="18"/>
    <ellipse cx="659" cy="505" rx="100" ry="112" fill="#fff0c6" stroke="#8d5c37" stroke-width="18"/>
    <ellipse cx="375" cy="520" rx="43" ry="63" fill="#d89d32"/>
    <ellipse cx="649" cy="520" rx="43" ry="63" fill="#d89d32"/>
    <ellipse cx="375" cy="526" rx="17" ry="51" fill="#322116"/>
    <ellipse cx="649" cy="526" rx="17" ry="51" fill="#322116"/>
    <circle cx="359" cy="481" r="15" fill="#fff" opacity=".9"/>
    <circle cx="633" cy="481" r="15" fill="#fff" opacity=".9"/>
    <path d="M466 639c24-22 68-22 92 0l-46 47Z" fill="#d98e8a" stroke="#804c43" stroke-width="12" stroke-linejoin="round"/>
    <path d="M512 687v27M512 714c-22 28-52 35-86 22M512 714c22 28 52 35 86 22" fill="none" stroke="#704730" stroke-width="14" stroke-linecap="round"/>
    <path d="M420 655 226 618M424 704 216 707M604 655l194-37M600 704l208 3" fill="none" stroke="#744a31" stroke-width="12" stroke-linecap="round" opacity=".72"/>
    <path d="M328 795c102 55 266 55 368 0" fill="none" stroke="#a66f49" stroke-width="24" stroke-linecap="round" opacity=".66"/>
  </g>
</svg>
